<svg width="1031" height="697" viewBox="0 0 1031 697" fill="none" xmlns="http://www.w3.org/2000/svg">
<g clip-path="url(#clip0)">
<path d="M746.975 162.467C747.787 146.953 754.522 132.342 765.79 121.647C777.059 110.953 792.001 104.991 807.536 104.991C809.38 104.991 811.2 105.087 813.001 105.248C820.085 93.06 830.243 82.9441 842.461 75.9105C854.678 68.8769 868.527 65.1717 882.624 65.165C896.721 65.1584 910.573 68.8505 922.797 75.8725C935.021 82.8946 945.189 93.0009 952.285 105.182C953.804 105.068 955.334 104.991 956.883 104.991C972.418 104.991 987.361 110.953 998.629 121.647C1009.9 132.342 1016.63 146.953 1017.44 162.467" fill="#F2F2F2"/>
<path d="M406 488C410.149 415.273 476.83 357.456 558.484 357.456C563.125 357.456 567.707 357.674 572.243 358.04C590.08 330.358 615.657 307.381 646.418 291.406C677.179 275.431 712.048 267.015 747.543 267C783.038 266.985 817.916 275.371 848.693 291.32C879.471 307.269 905.072 330.223 922.938 357.89C926.764 357.631 930.616 357.456 934.516 357.456C1016.17 357.456 1082.85 415.273 1087 488" stroke="#3F3D56" stroke-miterlimit="10"/>
<path d="M746.842 99.1882C747.862 93.9115 749.255 88.7139 751.012 83.6347C752.82 78.6922 755.106 74.4756 757.654 74.4756C763.832 74.4756 736.03 48.2185 736.03 48.2185C736.03 48.2185 734.285 51.462 731.397 55.8331C729.263 59.0966 726.953 62.2417 724.477 65.2547C721.182 69.4189 717.264 73.0501 712.862 76.0202C700.506 83.7429 746.842 99.1882 746.842 99.1882Z" fill="#A0616A"/>
<path d="M828.639 201.573C828.639 201.573 890.576 240.705 871.492 247.136C852.408 253.566 820.792 207.592 820.792 207.592L828.639 201.573Z" fill="#A0616A"/>
<path d="M745.562 112.685C745.562 112.685 775.227 134.316 783.896 150.771C792.565 167.226 837.637 203.791 837.637 203.791C837.637 203.791 828.331 222.177 823.832 221.068C819.333 219.958 726.582 150.957 716.824 145.369C707.066 139.782 721.938 105.27 745.562 112.685Z" fill="#6C63FF"/>
<path opacity="0.1" d="M745.562 112.685C745.562 112.685 775.227 134.316 783.896 150.771C792.565 167.226 837.637 203.791 837.637 203.791C837.637 203.791 828.331 222.177 823.832 221.068C819.333 219.958 726.582 150.957 716.824 145.369C707.066 139.782 721.938 105.27 745.562 112.685Z" fill="black"/>
<path d="M833.336 151.703C833.336 151.703 902.84 174.871 885.851 185.682C868.861 196.494 827.158 159.425 827.158 159.425L833.336 151.703Z" fill="#A0616A"/>
<path d="M788.545 468.333C788.545 468.333 817.891 455.976 814.802 474.511C811.713 493.045 797.812 510.035 797.812 519.302C797.812 528.569 771.555 548.648 766.921 544.015C762.288 539.381 774.644 520.847 771.555 510.035C768.466 499.223 765.377 474.511 765.377 474.511L788.545 468.333Z" fill="#55536E"/>
<path opacity="0.1" d="M788.545 468.333C788.545 468.333 817.891 455.976 814.802 474.511C811.713 493.045 797.812 510.035 797.812 519.302C797.812 528.569 771.555 548.648 766.921 544.015C762.288 539.381 774.644 520.847 771.555 510.035C768.466 499.223 765.377 474.511 765.377 474.511L788.545 468.333Z" fill="black"/>
<path d="M779.277 482.233C779.277 482.233 808.624 469.877 805.535 488.412C802.445 506.946 788.545 523.936 788.545 533.203C788.545 542.47 762.288 562.549 757.654 557.916C753.02 553.282 765.377 534.748 762.288 523.936C759.198 513.124 756.109 488.412 756.109 488.412L779.277 482.233Z" fill="#55536E"/>
<path d="M711.318 369.482C711.318 369.482 802.446 455.977 799.356 463.699C796.267 471.422 776.188 488.412 776.188 488.412C776.188 488.412 706.684 397.284 711.318 369.482Z" fill="#3F3D56"/>
<path opacity="0.1" d="M711.318 369.482C711.318 369.482 802.446 455.977 799.356 463.699C796.267 471.422 776.188 488.412 776.188 488.412C776.188 488.412 706.684 397.284 711.318 369.482Z" fill="black"/>
<path d="M689.694 213.484C689.694 213.484 712.862 236.652 706.684 281.444C700.506 326.235 711.318 369.482 723.674 383.383C736.03 397.284 787 477.6 787 477.6C787 477.6 765.377 513.124 748.387 494.59C731.397 476.055 680.427 400.373 680.427 400.373C680.427 400.373 634.091 309.245 629.457 284.533C624.824 259.82 623.279 221.207 635.635 213.484C647.992 205.761 689.694 213.484 689.694 213.484Z" fill="#3F3D56"/>
<path opacity="0.1" d="M727.999 60.7138C746.039 64.4516 744.247 65.1775 755.337 69.0698C755.399 68.8845 755.461 68.73 755.522 68.5756C757.221 64.5289 758.287 69.8421 760.743 69.8421C766.921 69.8421 739.119 43.585 739.119 43.585C739.119 43.585 738.069 45.5311 736.262 48.4503C735.721 49.2998 735.135 50.2265 734.486 51.1995C733.945 52.0181 733.358 52.8831 732.741 53.7789L727.999 60.7138Z" fill="black"/>
<path d="M760.743 82.1984C776.95 82.1984 790.089 69.0597 790.089 52.8522C790.089 36.6447 776.95 23.506 760.743 23.506C744.535 23.506 731.397 36.6447 731.397 52.8522C731.397 69.0597 744.535 82.1984 760.743 82.1984Z" fill="#A0616A"/>
<path d="M706.684 74.4757C706.684 74.4757 751.476 79.1093 760.743 99.1883C770.01 119.267 703.595 216.573 698.961 218.118C694.328 219.662 629.457 227.385 629.457 227.385C629.457 227.385 632.546 128.535 692.783 91.4656C692.783 91.4656 706.684 85.2875 706.684 74.4757Z" fill="#6C63FF"/>
<path d="M731.397 85.2874C731.397 85.2874 765.377 99.1882 777.733 113.089C790.089 126.99 842.603 151.703 842.603 151.703C842.603 151.703 837.97 171.781 833.336 171.781C828.703 171.781 722.13 126.99 711.318 123.901C700.506 120.812 706.684 83.7429 731.397 85.2874Z" fill="#6C63FF"/>
<path d="M758.426 56.7135C758.426 56.7135 766.149 48.9908 750.703 42.8126C750.703 42.8126 766.149 36.6345 769.238 27.3673C772.327 18.1 783.139 2.65466 792.406 27.3673C801.673 52.0799 818.663 84.5151 763.06 84.5151C763.06 84.5151 749.159 87.6042 749.159 75.2479C749.159 71.6512 749.996 68.1039 751.605 64.8868C753.213 61.6698 755.549 58.8715 758.426 56.7135Z" fill="#3F3D56"/>
</g>
<defs>
<clipPath id="clip0">
</clipPath>
</defs>
</svg>
